<svg version="1.1" xmlns="http://www.w3.org/2000/svg" xmlns:xlink="http://www.w3.org/1999/xlink" width="144" height="321.1125" viewBox="0,0,144,321.1125"><defs><linearGradient x1="288.16674" y1="225.1668" x2="288.16674" y2="355.50012" gradientUnits="userSpaceOnUse" id="color-1"><stop offset="0" stop-color="#000000"/><stop offset="1" stop-color="#402200"/></linearGradient><linearGradient x1="193.16679" y1="224.50016" x2="193.16679" y2="354.83353" gradientUnits="userSpaceOnUse" id="color-2"><stop offset="0" stop-color="#000000"/><stop offset="1" stop-color="#402200"/></linearGradient><linearGradient x1="240.00014" y1="216.33352" x2="240.00014" y2="235.6668" gradientUnits="userSpaceOnUse" id="color-3"><stop offset="0" stop-color="#1a0e00"/><stop offset="1" stop-color="#593000"/></linearGradient><linearGradient x1="240.00011" y1="177.90014" x2="240.00011" y2="210.65014" gradientUnits="userSpaceOnUse" id="color-4"><stop offset="0" stop-color="#000000"/><stop offset="1" stop-color="#454747"/></linearGradient><linearGradient x1="240.97512" y1="207.80012" x2="240.97512" y2="219.20011" gradientUnits="userSpaceOnUse" id="color-5"><stop offset="0" stop-color="#18191a"/><stop offset="1" stop-color="#5e6061"/></linearGradient><linearGradient x1="240.00012" y1="119.0624" x2="240.00012" y2="196.93784" gradientUnits="userSpaceOnUse" id="color-6"><stop offset="0" stop-color="#17171a"/><stop offset="1" stop-color="#5e6061"/></linearGradient><linearGradient x1="237.97914" y1="148.51735" x2="237.97914" y2="188.74829" gradientUnits="userSpaceOnUse" id="color-7"><stop offset="0" stop-color="#1a1a1a"/><stop offset="1" stop-color="#ffffff"/></linearGradient><linearGradient x1="213.67345" y1="149.23326" x2="213.67345" y2="170.95663" gradientUnits="userSpaceOnUse" id="color-8"><stop offset="0" stop-color="#1a1a1a"/><stop offset="1" stop-color="#ffffff"/></linearGradient><linearGradient x1="268.13084" y1="164.10788" x2="268.13084" y2="183.3414" gradientUnits="userSpaceOnUse" id="color-9"><stop offset="0" stop-color="#1a1a1a"/><stop offset="1" stop-color="#ffffff"/></linearGradient></defs><g transform="translate(-168,-46.38752)"><g data-paper-data="{&quot;isPaintingLayer&quot;:true}" stroke-miterlimit="10" stroke-dasharray="" stroke-dashoffset="0" style="mix-blend-mode: normal"><path d="M168,367.50003v-316h144v316z" fill="none" fill-rule="nonzero" stroke="none" stroke-width="0" stroke-linecap="butt" stroke-linejoin="miter"/><path d="M178.40914,313.61253v-267.22501h123.18203v267.22501z" fill-opacity="0.01" fill="#000000" fill-rule="nonzero" stroke="none" stroke-width="0" stroke-linecap="butt" stroke-linejoin="miter"/><path d="M232.04364,360.79704c0,0 -4.67938,-21.11975 1.4357,-46.3743c3.6733,-15.17028 18.69854,-35.02836 20.03884,-43.72523c2.35721,-15.29534 -2.13056,-43.75197 -2.13056,-43.75197l5.92999,0.91389c0,0 4.6573,30.36412 2.66854,43.26865c-1.51969,9.86086 -16.48135,27.03455 -20.87867,44.52962c-5.81091,23.11915 -1.13385,46.05324 -1.13385,46.05324z" fill="#000000" fill-rule="nonzero" stroke="#000000" stroke-width="0" stroke-linecap="butt" stroke-linejoin="miter"/><path d="M294.00005,355.50012h-11.66667v-130.33333h11.66667z" fill="url(#color-1)" fill-rule="nonzero" stroke="#000000" stroke-width="0" stroke-linecap="butt" stroke-linejoin="miter"/><path d="M199.00012,354.83353h-11.66666v-130.33333h11.66666z" fill="url(#color-2)" fill-rule="nonzero" stroke="#000000" stroke-width="0" stroke-linecap="butt" stroke-linejoin="miter"/><path d="M174.83348,235.6668v-19.33333h130.33333v19.33333z" fill="url(#color-3)" fill-rule="nonzero" stroke="#000000" stroke-width="0" stroke-linecap="butt" stroke-linejoin="miter"/><path d="M232.90011,210.65014v-32.75h14.2v32.75z" fill="url(#color-4)" fill-rule="nonzero" stroke="#000000" stroke-width="0" stroke-linecap="butt" stroke-linejoin="miter"/><path d="M204.50012,219.20011l5.73764,-11.4h61.26981l5.94255,11.4z" fill="url(#color-5)" fill-rule="nonzero" stroke="#000000" stroke-width="0" stroke-linecap="butt" stroke-linejoin="miter"/><path d="M213.29812,119.0624h53.404c8.92534,0 16.1107,7.18538 16.1107,16.1107v45.654c0,8.92532 -7.18535,16.1107 -16.1107,16.1107h-53.404c-8.92532,0 -16.1107,-7.18538 -16.1107,-16.1107v-45.654c0,-8.92532 7.18538,-16.1107 16.1107,-16.1107z" fill="url(#color-6)" fill-rule="evenodd" stroke="#000000" stroke-width="0" stroke-linecap="round" stroke-linejoin="round"/><path d="M218.2877,126.33834h43.4249c7.25755,0 13.10025,5.84271 13.10025,13.10025v37.12307c0,7.25753 -5.8427,13.10025 -13.10025,13.10025h-43.4249c-7.25753,0 -13.10025,-5.84271 -13.10025,-13.10025v-37.12307c0,-7.25753 5.84271,-13.10025 13.10025,-13.10025z" fill="#000000" fill-rule="evenodd" stroke="#000000" stroke-width="2" stroke-linecap="round" stroke-linejoin="round"/><path d="M211.42724,143.44974l16.73458,-8.67719" fill="none" fill-rule="nonzero" stroke="#000000" stroke-width="0.5" stroke-linecap="round" stroke-linejoin="miter"/><path d="M221.50957,187.64376c-0.55111,-0.24216 -0.55111,-0.91435 -0.55111,-0.91435c0,-4.35924 -0.38188,-9.11837 0.15116,-13.43973c0.34491,-2.79618 1.46627,-5.51066 1.85059,-8.27097c0.91512,-3.37001 2.12787,-6.69343 3.77898,-9.75416c0.95536,-1.77099 1.60985,-3.89003 3.52473,-4.93567c2.64169,-1.44253 6.13994,-1.40583 9.02818,-1.81152c3.13837,0.04003 4.38458,2.24339 6.63453,4.03388c5.2988,4.21674 7.75537,9.67811 8.44365,16.44083c-0.00218,3.53718 0.0613,7.20628 0.28231,10.74169c0.12795,2.04669 0.98888,5.21153 0.03786,7.15986c-1.88538,3.86254 -5.00595,0.91447 -5.79866,-1.81023c-0.19659,-0.45821 -0.98069,-2.70091 -1.61751,-2.74296c-0.43741,-0.02889 -0.96523,0.45913 -1.30281,0.17947c-0.57952,-0.48008 -0.79333,-1.31152 -0.9518,-2.04719c-0.46196,-2.14452 0.76017,-3.50619 -0.19681,-5.6341c-0.15201,-0.33801 -0.77557,-3.34306 -0.85957,-4.26525c-0.09128,0.14926 -0.2219,0.32991 -0.2472,0.4563c-0.36518,1.82428 -0.20771,2.07408 -1.48832,3.77139c-0.70066,-0.2548 -1.55076,-0.2624 -2.102,-0.76438c-0.2879,-0.26218 -0.89781,-3.30491 -1.03614,-4.86388c-0.1817,0.18695 -0.43586,0.30308 -0.71715,0.30308c-0.55229,0 -1,-0.44771 -1,-1v-0.52139c-0.54249,-0.60205 -1.22317,-0.97582 -2.23515,-1.37822c-0.175,-0.06958 0.24689,0.31349 0.26054,0.50132c0.00219,0.03014 -0.27003,2.40984 -0.27193,2.44409c-0.10011,1.80184 0.06587,3.44723 0.65125,5.12822c0.96975,2.78473 -0.02786,11.07984 -4.70949,7.95875c-2.26269,0.47126 -1.23085,1.90761 -2.55808,3.50906c-1.28415,1.54948 -5.15913,2.58188 -6.80361,1.95535z" fill="url(#color-7)" fill-rule="nonzero" stroke="none" stroke-width="0.5" stroke-linecap="butt" stroke-linejoin="miter"/><path d="M217.60723,149.90406c0.53239,0.56557 0.44294,1.37267 0.48385,1.86494c0.09046,0.13998 0.17475,0.28432 0.25245,0.43266c0.09175,0.01002 0.21661,-0.01875 0.38717,-0.09562l0.22098,-0.22097c0.04524,-0.04524 0.10774,-0.07322 0.17677,-0.07322c0.13807,0 0.25,0.11193 0.25,0.25v0.283h-0.02153l0.01484,0.05743c-0.2033,0.4066 -0.36196,0.85517 -0.49887,1.32195c0.06274,0.33244 0.09555,0.67545 0.09555,1.02612c0,1.21382 -0.39321,2.3358 -1.0592,3.24551c0.02039,1.83645 0.90321,4.02748 0.90321,5.8105c0,0.85623 0.1384,3.70552 -1.01995,3.91618c-1.0602,0.19281 -1.0338,-2.7504 -1.03656,-3.35018c0,-1.0831 0.27655,-3.65683 -0.09124,-5.14558c-0.00114,0.00081 -0.00228,0.00163 -0.00342,0.00244c0.04766,0.35892 0.02866,0.73835 0.02866,1.18112c-0.02766,1.99335 -1.2325,0.11786 -1.53357,0.35416c-0.57487,0.45119 0.48095,2.41042 -0.4245,2.97151c-1.10919,0.68734 -1.23043,-1.08087 -1.23043,-1.62767c0,-1.84307 -0.83935,-0.07946 -1.06319,0.76494c-0.26281,0.99143 0.12925,2.23324 0.14819,3.19707c0,1.17498 1.11944,3.28394 0.22186,4.40881c-1.27606,1.59918 -1.85386,-1.2707 -1.85386,-2.00331c0,-1.50351 0.88424,-5.92756 -0.77544,-6.75639c-1.18684,-2.17848 -2.19607,-3.41569 -2.19607,-5.97863c0,0 0,-0.08393 0.04863,-0.15454c-0.04156,-0.27259 -0.06312,-0.55176 -0.06312,-0.83596c0,-3.03757 2.46243,-5.5 5.5,-5.5c0.65654,0 1.28621,0.11503 1.86996,0.32605c0.56203,-0.62211 1.65038,-0.32934 2.26883,0.32766z" fill="url(#color-8)" fill-rule="nonzero" stroke="none" stroke-width="0.5" stroke-linecap="butt" stroke-linejoin="miter"/><path d="M273.18156,167.09387c0.25,0 0.25,0.25 0.25,0.25c0,0.21657 0,0.61577 0,0.95802c0.10195,0.41862 0.15599,0.85599 0.15599,1.30599c0,0.24461 -0.01597,0.4855 -0.04692,0.72167c0.18787,1.64902 0.50613,3.41325 -0.00042,4.93834h0.03285v0.283c0,0.13807 -0.11193,0.25 -0.25,0.25c-0.13807,0 -0.25,-0.11193 -0.25,-0.25l0,-0.20628c-1.12689,-1.11696 0.12882,1.04102 -1.03357,1.55094c-0.73548,0.32264 -1.01344,-3.40261 -1.01344,-0.35416c0,1.04551 1.06674,7.75069 -0.99278,6.68579c-0.80676,-1.49063 -1.3062,-4.40101 -1.18862,-6.26749c-1.037,0.96308 -0.69943,-0.7534 -1.7476,-0.7343c-0.48362,-0.04913 -0.41199,0.90613 -0.32269,1.24906c0.28023,1.07619 1.41606,4.98123 -0.24331,5.11845c-2.47619,0 -1.53825,-4.83527 -3.17432,-6.47134c-1.08212,-2.16424 -0.89619,-4.20909 -0.89619,-6.65519c0,0 0,-0.16929 0.13931,-0.22925c0.19068,-2.86468 2.57473,-5.12924 5.4877,-5.12924c2.15557,0 4.02152,1.24005 4.92338,3.0457c0.03698,-0.03445 0.09118,-0.0597 0.17063,-0.0597z" fill="url(#color-9)" fill-rule="nonzero" stroke="none" stroke-width="0.5" stroke-linecap="butt" stroke-linejoin="miter"/><path d="M217.94814,125.63521h43.94186c7.34395,0 13.2562,6.02192 13.2562,13.50205v38.26169c0,7.48013 -5.91225,13.50205 -13.2562,13.50205h-43.94186c-7.34393,0 -13.2562,-6.02192 -13.2562,-13.50205v-38.26169c0,-7.48013 5.91227,-13.50205 13.2562,-13.50205z" fill-opacity="0.49994" fill="#000000" fill-rule="evenodd" stroke="#000000" stroke-width="2" stroke-linecap="round" stroke-linejoin="round"/></g></g></svg>